<?xml version="1.0" encoding="utf-8"?>
<!-- Generator: Adobe Illustrator 26.0.1, SVG Export Plug-In . SVG Version: 6.00 Build 0)  -->
<svg version="1.1" id="Layer_1" xmlns="http://www.w3.org/2000/svg" xmlns:xlink="http://www.w3.org/1999/xlink" x="0px" y="0px"
	 viewBox="0 0 541.4 132.4" style="enable-background:new 0 0 541.4 132.4;" xml:space="preserve">
<style type="text/css">
	.st0{fill:#FFFFFF;}
</style>
<g>
	<polygon class="st0" points="27.3,11 27.3,10.9 27.3,11 	"/>
	<polygon class="st0" points="372,93.6 372,93.6 372.1,93.6 372,93.6 	"/>
	<path class="st0" d="M116,42.2c0-0.2-0.1-0.3-0.1-0.5c0-0.1-0.1-0.3-0.1-0.4c-0.1-0.5-0.2-0.9-0.3-1.4c0-0.1,0-0.2-0.1-0.3
		c-0.1-0.5-0.2-1-0.4-1.5V38c-0.2-0.5-0.3-1.1-0.5-1.6l0.1,0c-3.5-12.4-8.5-17.9-12.5-22c-8.6-9-24.5-14.2-40.3-14.2
		c-1.6,0-3.3,0.1-4.8,0.2l-0.3-0.2c-1.2,0.1-2.4,0.2-3.5,0.4h-0.1c-0.4,0-0.7,0.1-1.1,0.1c-9,1.6-17.4,5.1-24.7,10.2l0.1,0.1
		c0,0,0,0,0,0l-0.1-0.1c-0.1,0.1-0.3,0.2-0.4,0.3c-0.5,0.4-1.1,0.8-1.6,1.2l-0.1,0.1c-0.7,0.5-1.4,1.1-2.1,1.7l-0.3,0.3
		c-0.7,0.6-1.4,1.2-2,1.8l-0.3,0.3c-0.7,0.6-1.3,1.3-2,2s-1.3,1.4-1.9,2.1L16.3,21c-0.6,0.7-1.2,1.5-1.8,2.2
		C5.5,34.7,0.1,49.9,0.1,67.8c0,0,0,0.1,0,0.1c0,0,0,0.1,0,0.1l0,0v0c0,0,0,0.1,0,0.1c0,0,0,0.1,0,0.1c0,37.1,26.6,64.4,59.6,64.4
		c5.4,0,10.5-0.4,15.2-1.3h0.2c0.9-0.2,1.8-0.4,2.8-0.6c0.2-0.1,0.4-0.1,0.7-0.2c0.7-0.2,1.4-0.3,2.1-0.5c0.3-0.1,0.5-0.1,0.8-0.2
		c0.8-0.2,1.6-0.5,2.4-0.8l0.9-0.3c0.6-0.2,1.2-0.4,1.7-0.6c0.3-0.1,0.6-0.2,0.9-0.4c0.7-0.3,1.5-0.6,2.2-0.9c0.3-0.1,0.7-0.3,1-0.5
		c0.5-0.2,1-0.5,1.5-0.7c0.3-0.2,0.6-0.3,0.9-0.5h0.1c0.1,0,0.1-0.1,0.2-0.1l-0.1-0.2c0,0,0,0,0.1,0l0.1,0.2
		c9-4.8,16.8-12.1,24.1-22.4l-0.1-0.1c0,0,0.1-0.1,0.1-0.1h0l0,0l-0.1-0.1c0,0,0.1-0.1,0.1-0.1l-6.6-3.8
		c-6.2,6.3-15.4,11.6-24.3,14.5l0.1,0.2c0,0-0.1,0-0.1,0l-0.1-0.2c0,0.1-0.1,0.1-0.2,0.1v0c-0.6,0.2-1.1,0.3-1.7,0.5
		c-1,0.3-1.9,0.5-2.8,0.7c-0.2,0.1-0.5,0.1-0.7,0.2c-0.4,0.1-0.8,0.2-1.2,0.2c-0.5,0.1-0.9,0.2-1.4,0.2c-0.3,0-0.6,0.1-0.9,0.1
		c-0.5,0.1-1.1,0.1-1.6,0.2h-0.6c-0.7,0-1.3,0.1-2,0.1s-1.3,0-2-0.1h-0.3c-0.6,0-1.1-0.1-1.7-0.2h-0.2l-1.8-0.3h-0.1
		c-0.6-0.1-1.2-0.2-1.8-0.4c-15-3.7-23.4-19-23.5-41.1h21.3L63.2,73h55.3c0-0.1,0-0.1,0-0.2h0v0l0,0c0-0.1,0-0.1,0-0.2h0
		C118.5,59.7,117.5,49.9,116,42.2z M56.9,61.9H42v-9.3c0-0.9,0-1.7,0.1-2.6v-0.2v0v-0.2v0c0-0.9,0.1-1.8,0.1-2.6v-0.2v0
		c0-0.9,0.1-1.7,0.1-2.5v-0.2v0c0-0.9,0.1-1.7,0.2-2.5v-0.1c0.1-0.8,0.1-1.5,0.2-2.3c0-0.3,0.1-0.6,0.1-0.9l0,0c0-0.1,0-0.1,0-0.2
		l0,0v0l0,0c0,0,0-0.1,0-0.1l0.1,0.2c0.5-6.2,1.3-11,2.5-13.8C49,15.5,57,11.4,63.2,11.4c2.1,0,4.2,0.4,6.3,1.1
		c0.5,0.2,0.9,0.4,1.4,0.6c0,0.1,0.1,0.1,0.1,0.1c0.5,0.2,0.9,0.5,1.4,0.8c1,0.6,1.9,1.4,2.8,2.2c1.9,1.9,3.6,4.5,4.8,7.8
		c1.9,5.5,2.3,18.9,2.3,33l0.1,4.8L56.9,61.9L56.9,61.9z"/>
	<path class="st0" d="M341.8,120.5c-8.3-0.4-11.9-3.6-13.2-10.4c-0.1-0.5-0.2-0.9-0.2-1.4v-0.1c-0.1-0.5-0.1-1-0.1-1.5v0v-0.2v0
		v-0.2c0-0.4-0.1-0.9-0.1-1.4V37.9l0,0c0,0,0,0,0,0v-0.2l0,0v0l0,0c0,0,0,0,0,0v-0.2l0,0c-0.5-23.3-14.9-37.1-36.9-37.1
		c-10.1,0-18.1,2.7-26.3,9.3l0-0.1l-0.1,0.1c-0.2,0.2-0.5,0.4-0.7,0.6c-0.3,0.2-0.5,0.5-0.8,0.7c-3.9,3.4-7.9,7.6-12.3,12.9
		c-8.2-17.1-17.8-23.6-35-23.6c-13.2,0-23,4.1-31.5,13.2l0.1,0.1c0,0,0,0,0,0l0-0.1l-0.2,0.2l-0.4,0.4c-0.5,0.5-1,1.1-1.5,1.7
		c-2,2.4-3.9,5.1-5.8,8l-0.2,0.2l-0.5-1.3c-7-12.3-19.4-22.6-43.1-23H118V0v0v0.2v7v0.2v0v0.2c12,1.6,15.3,5.9,15.3,18.6v21.9v0.2v0
		v0.2v54.7c0.1,11.1-2.5,16.5-12.6,17.3v0.2v0v0.2v7.2v0.2v0v0.2h68.7v-0.2v0v-0.2v-7.2v-0.2v0v-0.2c-10.1-0.8-12.6-6.2-12.6-17.3
		V75.6v0v-0.2v0v0v-0.2v0V35.3c0.3-4.3,5.2-10.2,10.3-13.6c0.1-0.1,0.2-0.1,0.3-0.2c0.3-0.2,0.5-0.3,0.8-0.5c0.1,0,0.2-0.1,0.2-0.1
		c0.3-0.2,0.7-0.4,1-0.5l-0.1-0.2c0,0,0,0,0.1,0l0.1,0.1c1.7-0.9,3.4-1.4,4.8-1.4c10.7,0,14.8,6.2,14.8,22.5v4.5v0.2v0v0.2v49v0.2v0
		v0.2v7.5c0,11.1-2.5,16.5-12.6,17.3v0.2v0v0.2v7.2v0.2v0v0.2h65.1l0.2,0.1h3.3v-0.2v0v-0.2V121v-0.2v0v-0.2
		c-9.1-0.7-12.1-5.2-12.6-14.2v-0.2V106v0v-0.2c0-0.4,0-0.7-0.1-1.1v-0.6v-0.2v0v-0.2l0.2,0.3v-0.2v0v-0.2v-1.2v-0.2v0V102V34.6
		c0-3.5,4.2-8.5,8.9-12c0.3-0.2,0.7-0.5,1-0.7c0.1-0.1,0.2-0.1,0.2-0.2l0.9-0.6c0.1-0.1,0.3-0.2,0.4-0.2c0.2-0.1,0.3-0.2,0.5-0.3
		c0.3-0.2,0.6-0.3,0.9-0.5c0.1,0,0.1-0.1,0.2-0.1c0.8-0.4,1.7-0.7,2.5-0.9h0l0.1,0.2c0.8-0.3,1.5-0.4,2.2-0.4
		c10.4,0,14.5,8.9,14.5,25.7v24.1v0.2v0V69l-0.1-0.3v0.2v0v0.2V105c0,0.5,0,1-0.1,1.5v0.2v0v0.2v0.3c0,0.3-0.1,0.6-0.1,0.9
		c0,0.4-0.1,0.9-0.2,1.3c-1,6.9-4.3,10.4-12.2,11v0.2v0v0.2v7.2v0.2v0v0.2h32.3l0,0v0v0v0.2h0.1v0l0,0h37.4l0-0.2h0v0l0,0l0-0.2h0
		L341.8,120.5z M304.4,128.6l-0.1-0.2l0-0.2l0,0.1v0v0.1v0v0v0v0V128.6z"/>
	<path class="st0" d="M541.3,121.3l0-0.2c-10.7-0.8-13.4-5.3-13.4-17.5v0V46v-0.2v0v-0.2v0v-0.2v0v-0.2v-6V39v0v-0.2
		c0-2.2-0.2-4.3-0.5-6.3l-0.1,0.1v-0.2c-3.4-19.8-22.4-32-42.7-32c-16.4,0-29.5,7.3-38.8,23.6l-0.1,0.1c0,0-0.4-0.8-0.4-0.9
		c-2.1-4.2-4.9-8-8.4-11.3l0,0l0,0l-0.3-0.3c-0.2-0.1-0.3-0.3-0.5-0.4l-0.1-0.1c-7.5-6.6-18.3-11-34-11.3h-13.8V0v0v0.2v6.3v0.2v0
		v0.2c10.6,0,14.5,8.1,14.5,19.7v20.5h-12.6c-16.6,0.5-30.8,4-39,11.7c-5.5,5.2-10.1,14.1-10.3,26V85v0v0.2v4.3v0.2v0v0.2
		c0.2,11.9,4.8,20.8,10.3,26c0.6,0.6,1.3,1.1,1.9,1.7l0.3-0.3c0,0,0,0,0,0l-0.1,0.1h0l0,0l0,0c0,0,0.1,0,0.1,0.1c0,0,0,0,0,0
		l-0.1,0.1c0,0,0.1,0,0.1,0.1c4.7,3.7,10.5,6.2,17.4,7.8c0.7,0.2,1.5,0.3,2.2,0.5c0.1,0,0.2,0,0.3,0.1l0.3-0.2c0,0,0.1,0,0.1,0
		l-0.2,0.1c0,0,0,0,0,0c4.5,0.9,9.5,1.5,15,1.8c3.1,0.2,9.9,0.7,14.3,0.7h55.8v-0.2v0v-0.2V121v-0.2v0v-0.2
		c-10.1-0.8-12.6-6.2-12.6-17.3v-21v-0.1v-0.1v0V82v0v-0.1v-0.1V34.6c0-1.1,1.9-3.8,4.6-6.5c6-6,12.6-9.2,19.1-9.2
		c9.2,0,13.9,7.7,13.9,22.7V59v0.2v0v0.2l0.1-0.1v43.8c0,11.1-2.5,16.5-12.6,17.3v0.2v0v0.2v7.2v0.2v0v0.2h20h0.1l-0.1,0.2h50.2
		l0.1-7.1c0,0,0,0,0,0V121.3L541.3,121.3L541.3,121.3L541.3,121.3C541.3,121.3,541.3,121.3,541.3,121.3z M388.8,116.4l-0.3,0.2
		c0,0,0,0-0.1,0L388.8,116.4c-0.9-0.3-1.7-0.5-2.4-0.7c-5.2-1.8-9.6-5.6-12.4-11.5c-1-2-1.5-5.8-1.9-10.6l0,0c0,0,0,0,0,0s0,0,0,0
		l0,0c-0.1-1.2-0.2-2.4-0.2-3.7c0-1.1-0.1-1.8-0.1-2.5c0-0.7,0-1.4,0.1-2.4c0.3-6.4,0.9-11.8,2.1-14.3c3.5-7.5,9.6-11.8,16.7-12.4
		c0.4,0,5-0.1,8.9-0.1h1l0,0c0.9-0.1,1.6-0.1,2.3-0.1v49.7v0.1v0.1v0v0.1v0v0.1v0.1v8.9C403.3,117.3,394.5,117.5,388.8,116.4z"/>
	<polygon class="st0" points="304.4,128.4 304.4,128.4 304.4,128.4 304.4,128.3 304.4,128.3 304.4,128.2 304.4,128.3 304.4,128.6 
		304.4,128.4 304.4,128.4 	"/>
	<path class="st0" d="M351.7,30.2c1-3.1,6.3-7.5,12.6-6.3c4.4,0.8,8.1,5.7,8.1-1.8c0-6.3,3.9-13,11.1-14.5V7.4v0V7.2V1.3V1.1v0V0.9
		C376.4,2.4,370,4.1,367,17.7c-13.4-2.6-17.6,6.8-17.8,12.2c0,0.5,0,1,0,1.4c0,0.1,0,0.1,0,0.2c0,0,0,0,0,0
		C349.1,34.4,349.7,35.9,351.7,30.2z"/>
	<path class="st0" d="M373.4,126.1L373.4,126.1C373.4,126,373.4,126,373.4,126.1z"/>
</g>
</svg>
