<?xml version="1.0" encoding="utf-8"?>
<!-- Generator: Adobe Illustrator 27.3.1, SVG Export Plug-In . SVG Version: 6.00 Build 0)  -->
<svg version="1.1" id="Layer_1" xmlns="http://www.w3.org/2000/svg" xmlns:xlink="http://www.w3.org/1999/xlink" x="0px" y="0px"
	 viewBox="0 0 125 32" style="enable-background:new 0 0 125 32;" xml:space="preserve">
<style type="text/css">
	.st0{fill:none;}
	.st1{fill:#FFFFFF;}
	.st2{fill:#00ADEE;}
	.st3{fill:#50B748;}
	.st4{fill:#EC1D24;}
</style>
<g id="logo_mytv_super">
	<rect id="Rectangle" x="-17" class="st0" width="125" height="32"/>
	<g id="text">
		<path id="Combined-Shape" class="st1" d="M49.6,27.1c-0.4,0-0.7-0.2-1-0.5c-0.4-0.5-0.4-1.4,0.2-1.8L59,16.4v-5.5l-8.5,7
			c-0.4,0.3-0.9,0.4-1.3,0.2c-0.4-0.2-0.7-0.7-0.7-1.2V8.2c0-0.7,0.6-1.3,1.3-1.3s1.3,0.6,1.3,1.3v6.1l8.5-7
			c0.4-0.3,0.9-0.4,1.3-0.2c0.4,0.2,0.7,0.7,0.7,1.2V17c0,0.4-0.2,0.8-0.5,1l-10.6,8.8C50.2,27,49.9,27.1,49.6,27.1 M74.1,6.9H63.7
			c-0.7,0-1.3,0.6-1.3,1.3s0.6,1.3,1.3,1.3h4.2v7.5c0,0.7,0.6,1.3,1.3,1.3s1.3-0.6,1.3-1.3V9.5h3.8c0.7,0,1.3-0.6,1.3-1.3
			S74.8,6.9,74.1,6.9 M77.5,18.2c-0.2,0-0.4,0-0.6-0.1c-0.4-0.2-0.7-0.7-0.7-1.2V8.2c0-0.7,0.6-1.3,1.3-1.3s1.3,0.6,1.3,1.3v6.1
			l8.5-7c0.5-0.4,1.3-0.4,1.8,0.2c0.4,0.6,0.4,1.4-0.2,1.8L78.3,18C78.1,18.2,77.8,18.3,77.5,18.2 M73.6,27.2h-5.3
			c-0.3,0-0.6-0.3-0.6-0.6s0.3-0.6,0.6-0.6H73v-1.8h-4.7c-0.3,0-0.6-0.3-0.6-0.6v-3.1c0-0.4,0.3-0.6,0.6-0.6h5.3
			c0.3,0,0.6,0.3,0.6,0.6S74,21,73.6,21H69v1.8h4.7c0.3,0,0.6,0.3,0.6,0.6v3.1C74.3,26.9,74,27.2,73.6,27.2 M83.6,22.8h4V21h-4V22.8
			z M83,27.2c-0.3,0-0.6-0.3-0.6-0.6v-6.1c0-0.4,0.3-0.6,0.6-0.6h5.3c0.3,0,0.6,0.3,0.6,0.6v3.1c0,0.4-0.3,0.6-0.6,0.6h-4.7v2.4
			C83.6,26.9,83.3,27.2,83,27.2L83,27.2L83,27.2z M102.6,19.7c0.3,0,0.6,0.3,0.6,0.6l0,0v3.1c0,0.4-0.3,0.6-0.6,0.6h-1.4l1.9,2
			c0.2,0.2,0.2,0.7,0,0.9c-0.1,0.1-0.3,0.2-0.4,0.2s-0.3-0.1-0.4-0.2l0,0l-2.8-2.9c0,0,0,0,0,0H98v2.4c0,0.4-0.3,0.6-0.6,0.6
			s-0.6-0.3-0.6-0.6l0,0v-6.1c0-0.4,0.3-0.6,0.6-0.6L102.6,19.7L102.6,19.7z M102,21h-4v1.8h4V21z M80.9,27.2h-5.3
			c-0.3,0-0.6-0.3-0.6-0.6v-6.1c0-0.4,0.3-0.6,0.6-0.6s0.6,0.3,0.6,0.6v5.5h4v-5.5c0-0.4,0.3-0.6,0.6-0.6s0.6,0.3,0.6,0.6v6.1
			C81.5,26.9,81.3,27.2,80.9,27.2 M90.1,27.2c-0.3,0-0.6-0.3-0.6-0.6v-6.1c0-0.4,0.3-0.6,0.6-0.6s0.6,0.3,0.6,0.6v6.1
			C90.8,26.9,90.5,27.2,90.1,27.2 M35,18.3c-0.2,0-0.4,0-0.5-0.1c-0.4-0.2-0.7-0.7-0.7-1.2v-6l-8.5,7c-0.5,0.5-1.3,0.4-1.8-0.2
			c-0.5-0.5-0.4-1.4,0.2-1.8l10.6-8.8c0.4-0.3,0.9-0.4,1.3-0.2c0.5,0.2,0.7,0.7,0.7,1.2v6.1l8.5-7c0.4-0.3,0.9-0.4,1.3-0.2
			s0.7,0.7,0.7,1.2V17c0,0.7-0.6,1.3-1.3,1.3s-1.3-0.6-1.3-1.3v-6l-8.5,7C35.6,18.2,35.3,18.3,35,18.3"/>
		<path id="Fill-17" class="st2" d="M95.4,21h-5.3c-0.3,0-0.6-0.3-0.6-0.6s0.3-0.6,0.6-0.6h5.3c0.3,0,0.6,0.3,0.6,0.6
			S95.8,21,95.4,21"/>
		<path id="Fill-18" class="st3" d="M95.4,24.1h-5.3c-0.3,0-0.6-0.3-0.6-0.6s0.3-0.6,0.6-0.6h5.3c0.3,0,0.6,0.3,0.6,0.6
			S95.8,24.1,95.4,24.1"/>
		<path id="Fill-19" class="st4" d="M95.4,27.1h-5.3c-0.3,0-0.6-0.3-0.6-0.6s0.3-0.6,0.6-0.6h5.3c0.3,0,0.6,0.3,0.6,0.6
			S95.8,27.1,95.4,27.1"/>
	</g>
</g>
<image style="display:none;overflow:visible;" width="198" height="70" xlink:href="../../Documents/logo_mytvsuper.png"  transform="matrix(0.6313 0 0 0.6313 0 -5.8648)">
</image>
</svg>
