<svg xmlns="http://www.w3.org/2000/svg" xml:space="preserve" width="1000px" height="183.135px" x="0px" y="0px" viewBox="0 0 1000 183.135"><path fill="#5A5537" d="M86.929 183.122C30.937 183.122 0 146.289 0 91.832 0 37.121 33.497.039 87.956.039c21.739 0 39.888 5.121 53.948 13.035l-5.877 38.108c-13.298-8.447-28.891-15.089-47.051-15.089-30.425 0-45.251 22.502-45.251 55.486 0 33.242 15.337 56.504 45.769 56.504 9.716 0 16.615-1.795 23.788-5.625v-31.453H82.596l-5.115-32.467h73.895v85.91c-18.413 12.026-40.147 18.674-64.447 18.674M233.933 181.837c-23.794 0-43.731-5.115-61.623-13.294l6.392-37.333c18.153 9.719 38.36 16.357 55.997 16.357 12.525 0 21.226-5.356 21.226-15.842 0-9.974-5.12-14.582-29.921-24.039-35.283-13.552-50.621-25.063-50.621-54.208 0-34.001 26.587-52.164 60.335-52.164 23.018 0 37.843 4.34 53.19 11.76l-6.653 36.823c-15.851-9.203-32.472-14.314-46.022-14.314-13.293 0-19.685 5.622-19.685 13.804 0 8.951 4.859 13.294 26.839 21.734 38.355 14.072 53.706 27.362 53.706 55.497-.002 38.354-28.131 55.219-63.16 55.219M418.594 181.83c-23.781 0-43.714-5.111-61.612-13.287l6.38-37.34c18.165 9.726 38.362 16.364 55.997 16.364 12.535 0 21.237-5.356 21.237-15.848 0-9.968-5.118-14.582-29.921-24.033-35.294-13.552-50.632-25.063-50.632-54.208 0-34.001 26.594-52.164 60.35-52.164 23.006 0 37.833 4.34 53.178 11.76l-6.655 36.823c-15.848-9.206-32.458-14.32-46.022-14.32-13.292 0-19.684 5.628-19.684 13.81 0 8.941 4.858 13.294 26.852 21.734 38.354 14.065 53.691 27.352 53.691 55.483 0 38.361-28.114 55.226-63.159 55.226M607.932 179.796v-72.112h-61.125v72.112h-43.723V3.358h43.723V69.33h61.125V3.358h43.723v176.438zM928.904 121.231h-11.246v58.564h-43.73V3.358h56.769c42.952 0 69.304 19.18 69.304 57.534-.001 39.894-28.39 60.339-71.097 60.339m-.756-84.882h-11.007v51.902h10.229c19.441 0 30.171-8.44 30.171-26.6.001-16.865-9.977-25.302-29.393-25.302"/><path fill="#CFDB00" d="M726.745 10.846c3.129-3.752 6.674-6.303 8.947-7.291.804-.352 1.579-.545 2.112-.607V0c-.479.039-1.383.194-1.967.316V.32c-19.875 4.559-62.765 23.533-62.765 91.248s42.89 86.688 62.765 91.244c.584.129 1.488.284 1.967.323v-2.958c-.533-.052-1.309-.255-2.112-.607-2.273-.984-5.818-3.529-8.947-7.281-12.509-15.015-16.094-43.213-15.738-80.721.343-37.508 3.229-65.714 15.738-80.722M797.463 10.846c-3.123-3.752-6.675-6.303-8.951-7.291-.811-.352-1.572-.545-2.111-.607V0c.478.039 1.382.194 1.967.316V.32c19.874 4.559 62.765 23.533 62.765 91.248s-42.891 86.688-62.765 91.244c-.585.129-1.489.284-1.967.323v-2.958c.539-.052 1.301-.255 2.111-.607 2.276-.984 5.828-3.529 8.951-7.281 12.506-15.015 16.093-43.213 15.741-80.721-.346-37.508-3.235-65.714-15.741-80.722"/></svg>