<svg width="170" height="116" viewBox="0 0 170 116" fill="none" xmlns="http://www.w3.org/2000/svg">
<g clip-path="url(#clip0_3_1612)">
<path d="M128.332 60.6084L112.669 116H93.9962L72.7347 39.1084L51.4853 116H32.6599L0 0H21.2518L42.3583 78.5489L63.7506 0H81.7212L103.113 78.5489L107.935 60.6084H128.332Z" fill="#FFFF55"/>
<path d="M116.086 30.2704L124.22 0H145.472L136.912 30.2704H116.086Z" fill="#FFFF55"/>
<path d="M120.249 45.6612C120.249 49.0039 117.713 50.4615 115.234 50.4615C112.584 50.4615 110.562 48.9392 109.819 46.7192L111.7 45.8244C112.129 47.2482 113.41 48.0754 115.234 48.0754C116.374 48.0754 118.168 47.6111 118.168 45.6584C118.168 44.3978 117.457 43.9026 115.035 43.3061C112.984 42.8418 110.361 42.2143 109.95 39.2346C109.608 36.387 111.659 34.001 114.708 34.001C117.103 34.001 118.926 35.36 119.551 37.445L117.643 38.306C117.299 37.1468 116.275 36.4518 114.737 36.387C112.744 36.3195 111.802 37.5463 112.003 38.835C112.204 40.1237 113.427 40.4586 115.422 40.9875C117.742 41.5531 120.249 42.6139 120.249 45.6612Z" fill="#FFFF55"/>
<path d="M135.551 42.2518C135.551 46.8186 133.044 50.4624 129.112 50.4624C128.249 50.4874 127.392 50.2838 126.607 49.867C125.822 49.4502 125.129 48.831 124.581 48.0566V57.4264H122.53V34.2383H124.581V36.4217C125.128 35.6456 125.82 35.0246 126.605 34.6058C127.39 34.187 128.246 33.9814 129.109 34.0047C133.044 34.0047 135.551 37.6823 135.551 42.2518ZM133.471 42.2518C133.471 38.9738 131.933 36.3232 129.112 36.3232C126.291 36.3232 124.695 38.9738 124.695 42.2518C124.695 45.5299 126.32 48.1101 129.112 48.1101C131.904 48.1101 133.468 45.5242 133.468 42.2518H133.471Z" fill="#FFFF55"/>
<path d="M150.995 42.251C150.995 46.8178 148.232 50.4616 144.3 50.4616C140.367 50.4616 137.689 46.8178 137.689 42.251C137.689 37.6843 140.396 34.0039 144.3 34.0039C148.203 34.0039 150.995 37.6815 150.995 42.251ZM148.915 42.251C148.915 38.973 147.121 36.3224 144.3 36.3224C141.478 36.3224 139.764 38.973 139.764 42.251C139.764 45.5291 141.474 48.1093 144.295 48.1093C147.116 48.1093 148.915 45.5234 148.915 42.251Z" fill="#FFFF55"/>
<path d="M160.626 34.0714L160.227 36.4884C159.917 36.4191 159.602 36.3861 159.287 36.3899C157.178 36.3899 155.64 38.0782 155.64 41.5869V50.197H153.567V34.2374H155.647V36.0917C156.132 35.4238 156.739 34.89 157.424 34.5288C158.109 34.1677 158.855 33.9884 159.607 34.0039C159.943 34.0039 160.285 34.0376 160.626 34.0714Z" fill="#FFFF55"/>
<path d="M170 49.2046C169.031 50.1303 167.663 50.5608 166.782 50.4286C164.985 50.1979 163.876 48.9064 163.876 45.2316V36.6553H161.767V34.2382H163.876V30.7267L165.956 30.0654V34.2382H168.862V36.6553H165.956V45.1641C165.956 46.4893 166.014 47.2491 166.498 47.7471C166.954 48.1776 168.094 48.2114 168.949 47.3813L170 49.2046Z" fill="#FFFF55"/>
<path d="M106.068 44.3534H97.9893L98.9579 41.3877H107.036L106.068 44.3534Z" fill="#FFFF55"/>
</g>
<defs>
<clipPath id="clip0_3_1612">
<rect width="170" height="116" fill="white"/>
</clipPath>
</defs>
</svg>
