<?xml version="1.0" encoding="utf-8"?>
<!-- Generator: Adobe Illustrator 25.2.3, SVG Export Plug-In . SVG Version: 6.00 Build 0)  -->
<svg version="1.1" id="Capa_1" xmlns="http://www.w3.org/2000/svg" xmlns:xlink="http://www.w3.org/1999/xlink" x="0px" y="0px"
	 viewBox="0 0 1601.9 872.4" style="enable-background:new 0 0 1601.9 872.4;" xml:space="preserve">
<style type="text/css">
	.Sombra_x0020_paralela{fill:none;}
	.Esquinas_x0020_redondeadas_x0020_2_x0020_pt_x002E_{fill:#FFFFFF;stroke:#231F20;stroke-miterlimit:10;}
	.Reflejo_x0020_vivo_x0020_X{fill:none;}
	.Bisel_x0020_suave{fill:url(#SVGID_1_);}
	.Atardecer{fill:#FFFFFF;}
	.Follaje_GS{fill:#FFDD00;}
	.Pompadour_GS{fill-rule:evenodd;clip-rule:evenodd;fill:#44ADE2;}
	.st0{fill:#010101;}
	.st1{fill:#F37221;}
</style>
<linearGradient id="SVGID_1_" gradientUnits="userSpaceOnUse" x1="81.2553" y1="-101.9609" x2="81.9624" y2="-101.2538">
	<stop  offset="0" style="stop-color:#DEDFE3"/>
	<stop  offset="0.1783" style="stop-color:#DADBDF"/>
	<stop  offset="0.3611" style="stop-color:#CECFD3"/>
	<stop  offset="0.546" style="stop-color:#B9BCBF"/>
	<stop  offset="0.7324" style="stop-color:#9CA0A2"/>
	<stop  offset="0.9181" style="stop-color:#787D7E"/>
	<stop  offset="1" style="stop-color:#656B6C"/>
</linearGradient>
<g>
	<polygon class="st0" points="761.8,454.5 847.4,454.5 847.4,410.6 761.8,410.6 761.8,380 856.2,380 856.2,332.8 709.5,332.8 
		709.5,534.1 857.6,534.1 857.6,486.9 761.8,486.9 	"/>
	<path class="st0" d="M592,460.5l-44-126.3l-56.5,1l74.5,199h49l72.2-201.3c-19,0-37.5,0.5-56,0.5L592,460.5z"/>
	<path class="st0" d="M1053.9,402.2c0-43.5-30.5-69.4-77.8-69.4H891v201.3h51.4v-61.6h25.9l32.4,61.6h59.2l-43.5-70.3
		C1039.1,453.1,1053.9,433.3,1053.9,402.2z M974.7,428.6h-32.4v-49h32.4c17.6,0,28.2,8.8,28.2,25
		C1003,418.9,992.8,428.6,974.7,428.6z"/>
	<path class="st0" d="M416.5,534.1h51.8V335.6c-17.1,0.5-34.7,1-51.8,1V534.1z"/>
	<polygon class="st0" points="1515.3,488.8 1515.3,347.2 1464.4,344.8 1464.4,534.1 1601.9,534.1 1601.9,489.7 	"/>
	<path class="st0" d="M119.4,451.7c0,26.4-13.4,38.9-33.8,38.9c-20.8,0-33.8-12-33.8-38.9V348.6c-17.1,0.9-34.7,1.8-51.8,2.3v102.8
		c0,57.4,32.8,83.8,85.2,83.8c51.8,0,85.6-26.9,85.6-87.9V343.9l-51.4,1.9V451.7z"/>
	<path class="st0" d="M1315.8,338.8l-78.2,195.3h53.2l13.4-34.7h70.3l13.4,34.7h54.6l-77.7-193.9L1315.8,338.8z M1319,457.3
		l20.8-54.6l20.4,55.1L1319,457.3z"/>
	<path class="st0" d="M1161.2,410.6c-25.4-6.5-31.9-13-31.9-19.9c0-7.4,6-12.5,18.5-12.5c16.2,0,34.2,6.9,51.3,19.9l25-37.9
		c-19.9-17.6-44-27.8-75-27.8c-44,0-71.3,25.5-71.3,62.9c0,35.6,30.1,53.2,69.4,63.4c24.5,6.5,30.6,10.6,30.6,19.5
		c0,8.8-7.4,13.4-20.8,13.4c-21.3,0-41.2-8.3-59.3-24.1l-28.2,36.6c22.2,22.2,53.2,33.3,85.6,33.3c44.5,0,74.1-24.1,74.1-63.9
		C1229.3,436,1203.3,421.2,1161.2,410.6z"/>
	<polygon class="st0" points="328.1,442 252.7,341.1 205.5,342.5 205.5,534.1 255.5,534.1 255.5,428.1 333.7,534.1 378.6,534.1 
		378.6,337.4 328.1,338.8 	"/>
</g>
<g>
	<path class="st1" d="M785,0C596.6,0,435.5,120.3,375.4,288.8l64.3-1.4C498.5,137,633.2,36.1,799.3,36.1
		c171.7,0,321.2,112.5,378.6,265.2h20.8C1142.3,126.8,978.9,0,785,0z"/>
	<path class="st1" d="M797,847c-187.9,0-323-108.8-378.6-262.4h-39.8c55.6,169.9,215.3,287.9,405,287.9c120.2,0,226.7-44,303-118.6
		h-28.9C989.5,811.9,901.1,847,797,847z"/>
</g>
<g>
	<path class="st0" d="M928,676.6c-3.1,2.1-7.2,3.1-12.1,3.1c-3.3,0-6.3-0.7-9-1.9s-5-3-7-5.3c-1.9-2.2-3.5-4.9-4.6-8
		c-1.1-3.1-1.7-6.4-1.7-9.8v-0.3c0-3.4,0.5-6.6,1.7-9.6c1.1-3,2.7-5.7,4.6-7.9c2-2.3,4.3-4.1,7-5.3c2.7-1.3,5.7-2,9-2
		c4.5,0,8.4,1,11.6,3c3.2,2,6.1,4.7,8.8,8l19.5-15.1c-4.1-5.7-9.3-10.4-15.7-14c-6.5-3.6-14.4-5.4-24-5.4c-7,0-13.6,1.2-19.6,3.8
		c-6,2.5-11.2,5.9-15.7,10.4c-4.4,4.4-7.8,9.5-10.3,15.4c-2.5,5.9-3.7,12.3-3.7,19.1v0.2c0,6.9,1.2,13.4,3.8,19.3
		c2.5,5.9,5.9,11,10.3,15.4c4.3,4.3,9.4,7.7,15.3,10.1c5.9,2.4,12.2,3.6,18.8,3.6c5.1,0,9.8-0.6,13.9-1.6c4.1-1.1,7.8-2.6,11.2-4.4
		c3.3-1.8,6.3-4.1,8.9-6.7c2.6-2.6,5-5.4,7.3-8.4L937,668.4C934.2,671.8,931.2,674.5,928,676.6z"/>
	<rect x="971.8" y="608" class="st0" width="25.9" height="93.5"/>
	<polygon class="st0" points="1080.9,657.4 1042.4,608 1018.2,608 1018.2,701.5 1043.8,701.5 1043.8,650.2 1083.9,701.5 
		1106.5,701.5 1106.5,608 1080.9,608 	"/>
	<polygon class="st0" points="1152.1,664.6 1197,664.6 1197,644.2 1152.1,644.2 1152.1,629.9 1201.7,629.9 1201.7,608 1126.4,608 
		1126.4,701.5 1202.4,701.5 1202.4,679.5 1152.1,679.5 	"/>
	<polygon class="st0" points="1268.9,644.2 1246.5,608 1219.1,608 1219.1,701.5 1244.5,701.5 1244.5,647.9 1268.3,684.4 
		1268.8,684.4 1292.7,647.8 1292.7,701.5 1318.6,701.5 1318.6,608 1291.2,608 	"/>
	<path class="st0" d="M1395.7,607.3h-25l-39.7,94.2h27.1l6.7-16.9h36.2l6.7,16.9h27.8L1395.7,607.3z M1372.5,664.5l10.6-26.5
		l10.4,26.5H1372.5z"/>
</g>
</svg>
