<?xml version="1.0" encoding="UTF-8"?>
<svg id="Layer_1" xmlns="http://www.w3.org/2000/svg" version="1.1" viewBox="0 0 958.8 228.3">
  <!-- Generator: Adobe Illustrator 29.1.0, SVG Export Plug-In . SVG Version: 2.1.0 Build 142)  -->
  <defs>
    <style>
      .st0 {
        fill: #008543;
      }

      .st1 {
        fill: #2b2b29;
      }

      .st2 {
        fill: #ffd500;
      }
    </style>
  </defs>
  <path class="st2" d="M934.5,100.1l-110-63.5c-10.8-6.2-24.2,1.6-24.2,14v127c0,12.4,13.5,20.2,24.2,14l110-63.5c10.8-6.2,10.8-21.8,0-28Z"/>
  <g>
    <g id="_x23_2b2b29ff">
      <path class="st1" d="M680.5,38.6c2.6-1.2,5.5-.8,8.3-.9,7.9-.4,14.8,6.3,16.5,13.7,1.6,6.8-1,14.4-6.6,18.7-5.6,4.4-13.8,4.9-20.1,1.6-6.1-3.2-10-10.3-9.6-17.1.3-7,4.9-13.5,11.5-16h0Z"/>
      <path class="st1" d="M353.4,70.5c3.1-9.3,6-18.6,9.1-27.9h16c3.1,9.3,5.9,18.5,8.7,27.9,4.6,15.3,8.9,30.6,13.5,45.9,4.9,16.3,9.7,32.6,15.8,48.5,1.7,4.2,3.4,9,7.2,11.8,3.3,2.2,7.3,2.5,11.2,3.1v9.5h-63.7v-9.5c5-.9,10.6-1.3,14.6-4.8,2.9-2.7,1.5-6.9.5-10.2-2.3-7.4-4.6-14.8-7.1-22.1h-36.4c-2.4,8.1-5.3,16.1-7.4,24.3-.6,3.2-1.2,7.6,2.2,9.6,4.4,2.4,9.6,2.5,14.5,3.1v9.5h-49v-9.5c3.7-.5,7.5-1,10.8-2.9,3-1.7,5-4.6,6.5-7.7,4.1-8.5,6.5-17.7,9.6-26.5,7.8-24,15.6-48.1,23.4-72.1M330.9,145.2c-2.7,8.2-5,16.5-8.8,24.3-1.6,3.1-3.5,6.3-6.4,8.3-3.2,2.2-7.1,2.7-10.8,3.5v6.4h45.8v-6.4c-4.9-.7-10.4-.8-14.5-3.8-3.4-2.9-2.7-7.9-1.7-11.7,2.2-8.3,4.9-16.4,7.5-24.7h38.6c2.9,8.8,5.8,17.6,8.3,26.5,1,3.3.2,7.2-2.7,9.3-3.9,2.7-8.8,3.4-13.4,4.3v6.4h60.5v-6.4c-3.5-.7-7.2-1.1-10.2-3.1-3.4-2.2-5.2-6-6.8-9.7-3.2-7.7-5.8-15.7-8.4-23.6-10.8-33.4-19.6-67.3-30.5-100.7h-13.7c-10.8,33.7-21.8,67.3-32.7,101v.2Z"/>
      <path class="st1" d="M214.8,44.8h64.1c10.6,0,21.2.2,31.8-.5.6,8.7.9,17.5,1.6,26.3.2,3.5.4,6.9.8,10.4-3,.5-6,1.1-9,1.6-1.1-4.1-2.3-8.1-3.8-12-1.9-4.6-4.1-9.5-8.5-12.3-3.6-2.1-8-1.8-12-1.9-4.9,0-10-.2-14.9,0-1.9,0-4.3.6-4.8,2.7-.9,3.7-.4,7.5-.5,11.3v37.4c4.6,0,9.2.2,13.8-.2,4.2-.4,7.2-3.8,8.6-7.6,2.3-5.8,3.1-12,4.3-18.1h8.6v65.8h-8.7c-.9-5.5-1.6-11.2-4-16.3-1.6-3.5-4.8-6.4-8.7-6.8-4.6-.4-9.3,0-13.9-.2,0,13.8,0,27.7,0,41.5.2,3.9.5,8.8,4.3,11.1,4.3,2.1,9.3,2,14,2.4v9.6h-63.1v-9.6c4-.5,8.6-.3,11.9-3,2.8-3.3,2.2-8.1,2.5-12.2,0-31.3,0-62.7,0-94.1-.3-4.2,0-8.9-2.5-12.4-3-3.3-7.9-3.2-11.9-3.9v-9.4M216.4,46.4v6.4c3.3.5,6.9.9,9.8,2.7,2.1,1.4,3.4,3.8,3.8,6.4,1,5.9.8,11.9.8,17.9v86.4c-.3,3.8,0,8.2-2.6,11.4-3.1,3.1-7.8,3-11.8,3.6v6.4h59.8v-6.4c-5.7-.7-13.3-.3-16.5-6-2-4-1.8-8.6-2-13v-39.3c4.9,0,9.9-.2,14.8,0,3.5.2,7,2,9.1,4.9,3.9,5.3,4.6,12,5.7,18.3h5.7v-62.4h-5.6c-1.3,6.4-2.1,13-5,18.8-1.7,3.7-5.3,6.6-9.4,6.8-5.1.2-10.2,0-15.3,0v-46.3c0-2.6.2-5.8,2.6-7.4,2.7-1.5,6-1.2,9-1.3,6.2.2,12.5-.3,18.7.6,4.6.6,8.1,4.2,10.4,8,3.1,5.4,5,11.4,6.7,17.4,2-.4,4-.8,6-1.1-1-11.2-1.4-22.5-2.1-33.7-30.9.9-61.8.3-92.7.5v.2Z"/>
      <path class="st1" d="M44,83.1c10.8.2,21.7,0,32.6,0-4.6,3.5-6,9.3-5.7,14.8v53.4c.2,4.6.4,9.5,2.7,13.7,2.4,4.6,9.7,5.7,13.3,1.7,4.4-4.7,5.4-11.5,5.4-17.8v-55c0-4.2-2.2-7.9-4.9-10.8,10.4,0,20.9,0,31.3,0-3.1,3.4-5.1,7.7-5,12.3v73.8c-.4,5.6.7,11.5,5,15.5-8.8-.2-17.6,0-26.5,0v-12.4c-3.3,6.4-8.8,12.3-16.1,13.6-9.4,1.7-18.8-4.2-23.2-12.4-2.3-4.2-3.1-9-3.1-13.6v-62.8c0-5.2-1.2-11.1-6-14h.2Z"/>
      <path class="st1" d="M127,83.1c10.1.2,20.2,0,30.3,0s11.5-.5,16.7,2c6.3,2.7,10.3,8.9,12,15.2,2,7.4,2.2,15.6-1.3,22.7-2.4,5.1-6.5,9.3-11.4,12.2,4.8,10,9.1,20.2,13.6,30.3,3,6.8,6.7,13.3,11.5,18.9-4.4,0-8.9-.4-13.3.3-3.9.5-8.3,1.3-11.9-.9-3.5-2.3-5.2-6.2-6.8-9.8-4.3-10.9-8.7-21.8-13.2-32.6v28.5c-.2,5.3,1,11,5.1,14.6-10.8,0-21.4,0-32.2,0,3.5-3.1,5.7-7.5,5.6-12.3v-73.9c.2-5.4-.5-11.5-4.6-15.5M153.2,99v34.6c5.2-1.4,9.3-5.6,11-10.6,2.3-6.4,2-14-1.2-20-2-3.5-6.1-4.3-9.8-3.9Z"/>
      <path class="st1" d="M344.7,131.6c5-16.6,11-33,16.9-49.3,5.2,16.5,10.7,32.8,15.9,49.3h-32.7M346.8,130h28.4c-4.6-14.2-9.3-28.4-13.7-42.7-5,14.2-10.4,28.3-14.6,42.7Z"/>
      <path class="st1" d="M439.4,83.2h23.9c11.9,21,23.5,42.2,35.3,63.2v-47.8c0-5.5-2.2-10.8-4.9-15.4h22.1c-2.9,4.6-5.1,9.8-5.1,15.4,0,30.2,0,60.5,0,90.7-7.5-1.8-14-6.4-19.5-11.7-2.7-2.6-4.9-5.6-6.8-8.9-8.6-15.6-17.4-31.3-26.1-47v48.8c0,5.3,2,10.3,5,14.5h-22.6c3.4-4.6,5.2-10.2,5.1-15.9v-67.6c0-6.8-2.7-13.1-6.5-18.5h0Z"/>
      <path class="st1" d="M544.8,83.1c9.7.2,19.3,0,29,0,7.5,28.7,15.5,57.3,23.2,85.9,1.4,6,4.6,11.3,8.4,16.1-11.9,0-23.7-.2-35.6,0,4.4-2.5,6.3-8,5.2-12.9-1.3-6.1-3-12.3-4.5-18.4h-22.9c-1.4,7-4,13.7-4.7,20.7-.5,4.2,1.6,8.3,5.3,10.4-8.3-.2-16.6,0-25,0,2.7-4.1,5.7-8.2,6.8-13,6-23.7,12.3-47.4,18.3-71.1,1.2-4.1,2.4-8.6.9-12.7-.7-2.2-2.4-3.8-4.2-5.3M550.7,139.4h16c-2.7-9.9-5.3-19.8-8-29.6-2.6,9.9-5.4,19.8-8,29.7h0Z"/>
      <path class="st1" d="M604.1,83.3h56.2c-1.5,7.5-3,15.1-4.3,22.6-1.3-2.6-2.7-5.5-5.7-6.3-3.1-.7-6.6-.8-9.7.4,0,21.8,0,43.6,0,65.4s-.2,6.9.3,10.3c.8,3.7,2.8,7.1,5.4,9.8-10.6,0-21.2,0-31.9,0,3.9-4.1,5.1-9.8,4.8-15.3,0-23.6,0-47.3-.2-70.8-3,0-5.9-.2-8.8,0-4.2.5-7.6,3.1-10.5,6,1.6-7.2,3-14.6,4.4-21.9v-.2Z"/>
      <path class="st1" d="M671.4,83.1c10.7.2,21.3,0,32,0-3,3.4-5.1,7.7-5,12.3v73.9c0,3.3-.2,6.8.9,10,.8,2.3,2.4,4.2,3.9,6-10.5,0-21,0-31.6,0,3.4-3.1,5-7.5,4.9-12.1,0-25.1,0-50.3,0-75.4.3-5.4-1-11.1-5.3-14.7h0Z"/>
      <path class="st1" d="M713.4,83.2c10.6,0,21.3,0,32,0-1.5,1.6-3.1,3.1-3.9,5.3-1.7,4.2-1.4,8.9-1.4,13.4v27.9c6-10.4,11.9-20.7,18-31,3.1-4.9,2.1-12.6-3.2-15.5,9.7.2,19.2,0,28.9,0-8.7,13.9-17.4,27.8-26,41.8,8.2,17.6,16.6,35.1,24.9,52.6,1.3,3,3.5,5.5,5.7,8-8.5,0-17.4,1-25.3-2.6-3.1-1.3-5.5-4-6.9-7.1-5.4-12-10.6-24.2-15.9-36.2v33.5c0,4.6,1.9,8.9,5,12.2h-31c3.4-3.5,5-8.2,4.9-13,.2-25.1,0-50.3.2-75.4-.2-5.1-1.6-10.6-5.7-13.9h0Z"/>
    </g>
    <g id="_x23_008543ff">
      <path class="st0" d="M43.9,40.8h620.2c-5.6,8.9-5.5,20.9,0,29.8h-276.7c-2.8-9.3-5.7-18.6-8.7-27.9h-16c-3.1,9.3-6,18.6-9.1,27.9h-41.2c-.6-8.7-.9-17.5-1.6-26.3-10.6.7-21.2.5-31.8.5h-64.1v9.4c4.1.6,9,.5,11.9,3.9,2.6,3.5,2.2,8.2,2.5,12.4H43.9v-29.8h0Z"/>
      <path class="st0" d="M260,59.2c.5-2.2,2.9-2.7,4.8-2.7,4.9-.2,10,0,14.9,0,4,.2,8.4-.2,12,1.9,4.3,2.7,6.5,7.7,8.5,12.3h-40.7c0-3.8-.4-7.6.5-11.3Z"/>
    </g>
    <g id="_x23_ffd500ff">
      <path class="st2" d="M709.4,40.7h76.7v29.8h-76.6c5.7-8.9,5.8-21,0-29.8h0Z"/>
      <path class="st2" d="M330.9,145.2c10.8-33.7,21.9-67.3,32.7-101h13.7c10.9,33.3,19.7,67.3,30.5,100.7,2.6,7.9,5.2,15.9,8.4,23.6,1.6,3.6,3.4,7.4,6.8,9.7,3.1,2,6.8,2.4,10.2,3.1v6.4h-60.5v-6.4c4.6-.9,9.4-1.6,13.4-4.3,2.9-2,3.8-6,2.7-9.3-2.5-9-5.5-17.7-8.3-26.5h-38.6c-2.6,8.2-5.4,16.3-7.5,24.7-.9,3.8-1.6,8.8,1.7,11.7,4.2,3.1,9.7,3.1,14.5,3.8v6.4h-45.8v-6.4c3.7-.7,7.6-1.3,10.8-3.5,3-2,4.9-5.1,6.4-8.3,3.8-7.8,6-16.1,8.8-24.3M344.7,131.6h32.7c-5.2-16.5-10.6-32.8-15.9-49.3-6,16.3-11.9,32.7-16.9,49.3Z"/>
      <path class="st2" d="M216.4,46.4c30.9-.2,61.8.5,92.7-.5.7,11.2,1.1,22.5,2.1,33.7-2,.3-4,.7-6,1.1-1.6-6-3.6-12-6.7-17.4-2.3-3.8-5.8-7.4-10.4-8-6.2-.9-12.5-.5-18.7-.6-3,0-6.3-.2-9,1.3-2.4,1.6-2.5,4.8-2.6,7.4v46.3c5.1,0,10.2.2,15.3,0,4.2-.2,7.7-3.1,9.4-6.8,2.9-5.9,3.7-12.5,5-18.8h5.6v62.5h-5.7c-1.2-6.3-1.9-13-5.7-18.3-2.1-2.9-5.5-4.7-9.1-4.9-4.9-.2-9.9,0-14.8,0v39.3c.2,4.3,0,9,2,13,3.2,5.7,10.8,5.3,16.5,6v6.4h-59.8v-6.4c4-.7,8.7-.6,11.8-3.6,2.6-3.1,2.3-7.5,2.6-11.4,0-28.8,0-57.6,0-86.4s.2-12-.8-17.9c-.5-2.4-1.6-4.9-3.8-6.4-2.9-1.9-6.4-2.3-9.8-2.7v-6.7Z"/>
    </g>
  </g>
  <g>
    <path d="M831.1,72.7v16.9h14.2v11.2h-14.2v26.2c0,7.2,1.9,11,7.7,11s4.5-.4,5.8-.7l.2,11.4c-2.2.9-6.1,1.5-10.8,1.5s-10.1-1.8-12.9-4.9c-3.2-3.4-4.6-8.8-4.6-16.5v-27.9h-8.5v-11.2h8.5v-13.4l14.6-3.5Z"/>
    <path d="M857.3,89.6l9.6,30.1c1.7,5.2,2.9,10,4,14.8h.4c1.1-4.9,2.4-9.5,4-14.8l9.4-30.1h15.8l-22.6,59.3h-14.7l-22-59.3h16.2Z"/>
  </g>
  <path class="st2" d="M492.7,17.9L56.3,8.6S.4,4.5.7,35.3v139.4s-6.9,37.9,23.9,45.1h591.4l-4.7-4.4L49.8,199.4s-26.5,4.2-25.1-40.8l1.7-105.3s.7-24.1,35.6-22.3l418.8-9.1,11.9-4Z"/>
</svg>