<svg version="1.2" xmlns="http://www.w3.org/2000/svg" viewBox="0 0 985 458" width="985" height="458">
	<title>SCTV</title>
	<style>
		.s0 { fill: #034acb } 
		.s1 { fill: #0e9c33 } 
		.s2 { fill: #ed010b } 
	</style>
	<g id="SCTV">
		<path id="B" class="s0" d="m785.9 34.8c26.9-3.6 198.4 20.2 198.4 105.1 0 62.1-91.9 159-119.6 144.1-14.9 13.5-21 18.1-29.8 20.9-8.9-3.9-19.2-4.9-40.2 0.8 34.8-34.8 111.5-94.1 111.5-157.3 0-89.1-121-106.9-120.3-113.6z"/>
		<path id="G" class="s1" d="m707 35.4c43.7 24.9 101.4 49.3 101.4 102.6 0 80.9-152.6 164.6-235.6 210.3l2.9 16.3-34 22.7 26.6-8.2 18.6 13.2c71.5-42.1 129.5-91.2 101.7-39.1 32-12.8 193.5-132.4 193.5-210.2 0-24.1-20.3-53.6-55.1-77.4-34.6-23.6-113.9-33.3-120-30.2z"/>
		<path id="R" class="s2" d="m278.9 457.1c6.8-23.7-32.8-16.3-132.2-2.1 11.6-26.3 27.7-30.1 64.5-41 54.1-16 92.7-26.6 119.8-35.5 12-4-2.7-11.2-13.9-15.2 76.3-26.1 200.1-69.6 273.9-107.7 68.6-35.5 118.9-82.5 118.9-114.2 0-61.6-160.9-81.1-221.8-81.1-92.3 0-205.6 29-205.6 71.3 0 37.5 84 64 159.4 64 98.5 0 162.1-12.2 162.1-12.2-62.2 64.6-180.1 98.4-337.3 98.4-180.6 0-265.8-66.2-265.8-124.3 0-82.5 176.5-156.5 410.8-156.5 8.6 0 368.1 0 368.1 128.9 0 82-136.6 159.8-267.5 223.9-113.6 55.6-173 83.2-233.4 103.3z"/>
	</g>
</svg>