<svg width="155" height="64" viewBox="0 0 155 64" fill="none" xmlns="http://www.w3.org/2000/svg">
<g clip-path="url(#clip0_627_6734)">
<path d="M152.199 0H139.659C137.443 0 135.396 1.18225 134.285 3.10339L125.943 17.5531C125.046 19.102 122.807 19.102 121.915 17.5531L113.573 3.10339C112.462 1.18225 110.415 0 108.199 0H40.0114C37.8713 0 36.1308 1.73506 36.1308 3.88061V20.0763C36.1308 21.3625 35.0909 22.4025 33.8046 22.4025H22.4584C21.1721 22.4025 20.1322 21.3625 20.1322 20.0763V3.88061C20.1322 1.73506 18.3971 0 16.2516 0H4.81225C2.6667 0 0.931641 1.73506 0.931641 3.88061V60.1194C0.931641 62.2595 2.6667 64 4.81225 64H16.2516C18.3917 64 20.1322 62.2649 20.1322 60.1194V43.9237C20.1322 42.6375 21.1721 41.5975 22.4584 41.5975H33.8046C35.0909 41.5975 36.1308 42.6375 36.1308 43.9237V60.1194C36.1308 62.2595 37.8659 64 40.0114 64H128.85C130.99 64 132.73 62.2649 132.73 60.1194V41.3293C132.73 40.9188 132.84 40.5193 133.042 40.1635L154.213 3.492C155.111 1.94304 153.989 0 152.199 0ZM77.8761 60.7981C61.9979 60.7981 49.0753 47.881 49.0753 31.9973C49.0753 16.1136 61.9924 3.20192 77.8761 3.20192C93.7598 3.20192 106.677 16.119 106.677 32.0027C106.677 47.8864 93.7598 60.8036 77.8761 60.8036V60.7981Z" fill="#FF2600"/>
<path d="M87.7762 40.119C92.2593 34.6516 91.4612 26.585 85.9937 22.102C80.5263 17.6189 72.4597 18.417 67.9767 23.8844C63.4936 29.3519 64.2917 37.4185 69.7591 41.9015C75.2266 46.3846 83.2932 45.5865 87.7762 40.119Z" fill="#FF2600"/>
</g>
<defs>
<clipPath id="clip0_627_6734">
<rect width="153.599" height="64" fill="white" transform="translate(0.931641)"/>
</clipPath>
</defs>
</svg>
