<svg width="98" height="64" viewBox="0 0 98 64" fill="none" xmlns="http://www.w3.org/2000/svg">
<g clip-path="url(#clip0_627_6736)">
<path d="M97.7369 0H0.0507812V49.822H97.7369V0Z" fill="white"/>
<path fill-rule="evenodd" clip-rule="evenodd" d="M11.5815 20.9948C11.5815 20.9948 19.782 17.1979 25.5052 16.3172C31.1616 15.4467 33.1201 18.6013 33.2288 20.4506C33.3376 22.2998 22.7861 40.6842 22.7861 40.6842C22.7861 40.6842 20.5019 44.1651 25.5058 42.2072C28.1802 41.1605 33.7731 35.789 33.7731 35.789L36.8191 36.5508C36.8191 36.5508 32.6851 41.9897 25.6145 45.1444C20.14 47.5871 12.2346 47.8641 11.4728 44.6006C10.5502 40.6457 12.5608 37.8563 12.5608 37.8563L19.0877 25.8905C19.0877 25.8905 20.6106 23.6058 18.8702 23.0621C17.1297 22.5184 11.5821 25.02 11.5821 25.02V20.9948H11.5815ZM25.1796 8.59356C25.1796 5.10867 28.0041 2.28418 31.4889 2.28418C34.9733 2.28418 37.7983 5.10867 37.7983 8.59356C37.7983 12.0779 34.9738 14.9029 31.4889 14.9029C28.0041 14.9029 25.1796 12.0784 25.1796 8.59356ZM0.0507812 0H97.7369V49.822H0.0507812V0ZM48.7848 1.30549H96.2133V48.5165H48.7848V1.30549Z" fill="#E60020"/>
<path d="M95.5473 54.319C96.057 54.319 96.471 53.9056 96.471 53.3947C96.471 52.885 96.0576 52.4709 95.5473 52.4709H92.1134C91.6495 52.4709 91.2734 52.847 91.2734 53.3109V62.7857C91.2734 63.2496 91.6495 63.6256 92.1134 63.6256C92.1609 63.6256 92.2085 63.6205 92.2538 63.6132H95.5467C96.0564 63.6132 96.4705 63.1997 96.4705 62.6894C96.4705 62.1791 96.057 61.7657 95.5467 61.7657H92.9527V58.6874H95.5467C96.0564 58.6874 96.4705 58.2745 96.4705 57.7637C96.4705 57.2528 96.057 56.8399 95.5467 56.8399H92.9527V54.3184H95.5473V54.319Z" fill="#727171"/>
<path d="M90.1424 61.7826H87.6799V53.3109C87.6799 52.847 87.3038 52.4709 86.8399 52.4709C86.3761 52.4709 86 52.847 86 53.3109V62.7857C86 63.2496 86.3761 63.6256 86.8399 63.6256V63.6302H90.1424C90.6527 63.6302 91.0668 63.2173 91.0668 62.7064C91.0668 62.1967 90.6533 61.7826 90.1424 61.7826Z" fill="#727171"/>
<path d="M75.3016 60.7043C75.8975 60.7043 76.3805 60.2212 76.3805 59.6254C76.3805 59.0295 75.8975 58.5464 75.3016 58.5464C74.7057 58.5464 74.2227 59.0295 74.2227 59.6254C74.2227 60.2212 74.7057 60.7043 75.3016 60.7043Z" fill="#727171"/>
<path d="M84.2273 57.2477C84.779 56.7584 85.0599 56.2956 85.0599 55.4636C85.0599 53.7679 83.0765 52.4698 80.4995 52.4698C80.4389 52.4698 80.3777 52.4709 80.3171 52.4726L80.3205 52.4845C80.2752 52.4766 80.2287 52.4721 80.1812 52.4721C79.7173 52.4721 79.3412 52.8481 79.3412 53.312V61.2724L76.0461 53.0067C75.922 52.7026 75.64 52.5112 75.333 52.4874C75.3296 52.4868 75.3251 52.4868 75.3211 52.4868C75.3019 52.4857 75.2826 52.4845 75.2628 52.4845C75.243 52.4845 75.2243 52.4857 75.205 52.4868C75.2005 52.4868 75.1965 52.4868 75.1931 52.4874C74.8867 52.5112 74.6047 52.7026 74.4801 53.0067L70.8978 61.8891C68.8039 61.6971 67.1676 60.0399 67.1676 58.0236C67.1676 55.8782 69.0202 54.1389 71.3056 54.1389C71.7756 54.101 72.1223 53.7883 72.1455 53.2995C72.1676 52.8363 71.7637 52.4364 71.3056 52.459C68.0064 52.459 65.332 54.9681 65.332 58.0622C65.332 61.1019 67.9974 63.5401 71.22 63.6239C71.6222 63.7293 72.0498 63.5237 72.2106 63.1284L75.2588 55.5707L78.0584 62.5914C78.076 62.6458 78.0969 62.6979 78.1207 62.7489L78.1564 62.8389L78.1632 62.8367C78.4197 63.3113 78.9227 63.633 79.5004 63.633C80.3398 63.633 81.0205 62.9522 81.0205 62.1117V54.353C81.0302 54.353 81.0386 54.3524 81.0483 54.3524C82.1855 54.3524 83.1082 54.9018 83.1082 55.5786C83.1082 55.9915 82.7576 56.3455 82.2326 56.5675C81.9018 56.7074 81.6696 57.0353 81.6696 57.4171C81.6696 57.8475 81.9647 58.2089 82.364 58.3108C83.2753 58.5402 83.9379 59.294 83.9379 60.1912C83.9379 61.0209 83.3138 61.6711 82.612 61.9792C82.2949 62.1134 82.0728 62.4266 82.0728 62.7931C82.0728 63.2807 82.4682 63.676 82.9558 63.676C84.2568 63.6777 85.1414 62.3422 85.1414 62.3422C87.083 59.0476 84.2273 57.2477 84.2273 57.2477Z" fill="#727171"/>
<path d="M57.5164 54.784C58.1123 54.784 58.5954 54.3009 58.5954 53.7051C58.5954 53.1092 58.1123 52.6261 57.5164 52.6261C56.9206 52.6261 56.4375 53.1092 56.4375 53.7051C56.4375 54.3009 56.9206 54.784 57.5164 54.784Z" fill="#727171"/>
<path d="M58.3567 62.6656L58.3635 55.8805C58.3635 55.4166 57.9874 55.0406 57.5235 55.0406C57.0597 55.0406 56.6836 55.4166 56.6836 55.8805V62.6724C56.6853 63.1612 56.9747 63.5503 57.485 63.5503C58.4054 63.5503 58.3567 62.6656 58.3567 62.6656Z" fill="#727171"/>
<path d="M63.6853 57.8826L59.6681 57.8758C59.2042 57.8758 58.8281 58.2519 58.8281 58.7158C58.8281 59.179 59.2042 59.5557 59.6681 59.5557H63.6916C64.1803 59.554 64.57 59.264 64.57 58.7543C64.5706 57.8345 63.6853 57.8826 63.6853 57.8826Z" fill="#727171"/>
<path d="M13.1148 54.7002C13.4966 54.7002 13.8064 54.3909 13.8064 54.0086C13.8064 53.6263 13.4971 53.3165 13.1148 53.3165H5.1998C5.16356 52.9167 4.82713 52.6029 4.41708 52.6029C4.00703 52.6029 3.67117 52.9167 3.63435 53.3165H2.7055C2.32377 53.3165 2.01396 53.6263 2.01396 54.0086C2.01396 54.3909 2.32377 54.7002 2.7055 54.7002H3.39308C3.15747 55.1969 2.69927 55.6681 1.81403 55.7706C1.35867 55.8006 1.02734 56.1223 1.02734 56.5573C1.02734 56.9923 1.38982 57.3916 1.81403 57.344C2.25241 57.2987 2.63414 57.2086 2.96717 57.0857V63.147C2.96717 63.582 3.31945 63.9337 3.75386 63.9337C4.18826 63.9337 4.54055 63.582 4.54055 63.147V61.7402H10.701C11.0714 61.7402 11.3721 61.4394 11.3721 61.0685C11.3721 60.6975 11.0719 60.3973 10.701 60.3973H4.53941V59.371H10.6998C11.0702 59.371 11.371 59.0709 11.371 58.6999C11.371 58.3289 11.0708 58.0287 10.6998 58.0287H4.53941V57.0399L11.9578 57.0353L11.9566 62.229C11.9566 62.4447 11.7816 62.6198 11.5653 62.6198L10.4319 62.6209C10.0615 62.6209 9.76079 62.9211 9.76079 63.292C9.76079 63.663 10.061 63.9638 10.4319 63.9638L12.3508 63.9524C13.0021 63.9524 13.5306 63.4246 13.5306 62.7727L13.5311 56.4316C13.5311 55.9972 13.1788 55.6449 12.7444 55.6449L4.69064 55.6562C4.87584 55.3362 4.99591 55.006 5.0735 54.7002H13.1148Z" fill="#727171"/>
<path d="M16.0348 60.4319C15.7114 60.4319 15.4492 60.702 15.4492 61.0345V63.0168C15.4492 63.3498 15.7114 63.6194 16.0348 63.6194C16.3582 63.6194 16.6205 63.3492 16.6205 63.0168V61.0345C16.6199 60.7014 16.3582 60.4319 16.0348 60.4319Z" fill="#727171"/>
<path d="M19.1554 60.4319C18.832 60.4319 18.5703 60.702 18.5703 61.0345V63.0168C18.5703 63.3498 18.832 63.6194 19.1554 63.6194C19.4788 63.6194 19.741 63.3492 19.741 63.0168V61.0345C19.741 60.7014 19.4788 60.4319 19.1554 60.4319Z" fill="#727171"/>
<path d="M22.4275 61.2225L22.4241 59.7703C22.4241 59.4798 22.1885 59.2442 21.8979 59.2442H20.5052C20.2147 59.2442 19.9791 59.4798 19.9791 59.7703C19.9791 60.0609 20.2147 60.2959 20.5052 60.2959H20.99V60.975C20.99 60.975 20.9713 61.717 20.3625 62.0035C20.0521 62.157 19.9609 62.3949 19.9609 62.69C19.9609 63.1244 20.3161 63.5288 20.7476 63.4767C20.9255 63.4551 21.1277 63.3866 21.2109 63.3254C22.3856 62.69 22.4275 61.2225 22.4275 61.2225Z" fill="#727171"/>
<path d="M26.5064 62.0035C25.8975 61.7164 25.8789 60.975 25.8789 60.975V60.2959H26.3637C26.6542 60.2959 26.8898 60.0609 26.8898 59.7703C26.8898 59.4798 26.6542 59.2442 26.3637 59.2442H24.971C24.6804 59.2442 24.4448 59.4798 24.4448 59.7703L24.4414 61.2225C24.4414 61.2225 24.4833 62.69 25.658 63.3254C25.7412 63.386 25.9434 63.4551 26.1213 63.4767C26.5523 63.5293 26.908 63.1244 26.908 62.69C26.908 62.3955 26.8168 62.157 26.5064 62.0035Z" fill="#727171"/>
<path d="M25.6047 58.9417C26.256 58.9417 26.7844 58.4133 26.7844 57.762V54.5189C26.7844 53.8676 26.256 53.3398 25.6047 53.3398L24.1785 53.342C24.1706 52.9065 23.8257 52.5553 23.4015 52.5553C22.9756 52.5553 22.6307 52.9082 22.6244 53.3454L21.1133 53.3477C20.462 53.3477 19.9336 53.8767 19.9336 54.528V57.7535C19.9336 58.4048 20.462 58.9332 21.1133 58.9332L22.7196 58.9361L22.7162 62.3807C22.7162 62.5744 22.5599 62.7302 22.3667 62.7302L22.2665 62.7336C21.9414 62.7336 21.678 62.997 21.678 63.3221C21.678 63.6466 21.9414 63.9105 22.2665 63.9105L23.1081 63.9235C23.6875 63.9235 24.157 63.454 24.157 62.8746L24.1576 58.9383L25.6047 58.9417ZM21.507 57.2092V56.7799H24.0919C24.4623 56.7799 24.763 56.4792 24.763 56.1082C24.763 55.7372 24.4623 55.437 24.0919 55.437H21.507V55.0712C21.507 54.8548 21.6825 54.6804 21.8983 54.6804L24.8197 54.6713C25.0355 54.6713 25.211 54.8474 25.211 55.0627V57.2171C25.211 57.4335 25.0355 57.6079 24.8197 57.6079L21.8983 57.6C21.682 57.6011 21.507 57.4256 21.507 57.2092Z" fill="#727171"/>
<path d="M19.0926 57.3667C18.6582 57.3667 18.3059 57.7189 18.3059 58.1534L18.3048 58.6546C18.3048 58.8098 18.1785 58.9366 18.0228 58.9366H17.483C17.3924 58.9366 17.3193 58.863 17.3193 58.773C17.3193 58.7277 17.3374 58.6874 17.3663 58.658L19.488 55.9836C19.7649 55.6489 19.7185 55.1533 19.3837 54.8758C19.049 54.5994 18.5534 54.6458 18.2759 54.98L17.7079 55.6925H17.3901C17.2995 55.6925 17.2264 55.6194 17.2264 55.5288C17.2264 55.4835 17.2446 55.4433 17.2734 55.4138L18.5053 53.8693C18.7823 53.5346 18.7358 53.039 18.4011 52.7621C18.0669 52.4851 17.5708 52.5315 17.2938 52.8663L15.4588 55.1493C15.2894 55.3492 15.1875 55.6075 15.1875 55.8896C15.1875 56.5233 15.7012 57.0365 16.3344 57.0365H16.634L15.5511 58.3935C15.3823 58.5934 15.2798 58.8523 15.2798 59.1343C15.2798 59.7675 15.7935 60.2812 16.4267 60.2812H16.8804V63.2235C16.8804 63.6205 17.2021 63.9428 17.5991 63.9428C17.9961 63.9428 18.3178 63.6211 18.3178 63.2235V60.2812H18.8259C19.4019 60.2812 19.868 59.8145 19.868 59.2385L19.8782 58.1539C19.8788 57.7189 19.527 57.3667 19.0926 57.3667Z" fill="#727171"/>
<path fill-rule="evenodd" clip-rule="evenodd" d="M32.857 54.4272C32.9589 54.524 33.0144 54.6673 33.0144 54.8531L35.187 54.891C35.187 54.6651 35.2465 54.5223 35.3535 54.4272H32.857ZM32.7301 56.4548H35.4895C35.298 56.3721 35.1876 56.2016 35.1876 55.9445H33.015C33.0144 56.1965 32.9131 56.371 32.7301 56.4548ZM37.1087 60.0513C37.1104 60.049 37.1269 60.0292 37.1269 59.9686V59.87H31.014V59.9686C31.014 60.0286 31.027 60.0473 31.0287 60.049L37.0765 60.0558L37.1087 60.0513ZM37.1269 58.8675V58.6823H31.014V58.8675H37.1269ZM37.1269 57.6918V57.5932C37.1269 57.5332 37.1138 57.5145 37.1121 57.5128L31.0644 57.5066C31.031 57.5122 31.0146 57.5326 31.0146 57.5926V57.6912H37.1269V57.6918ZM36.9603 62.4663L36.7236 62.1819L36.5469 62.0052C36.4348 61.875 36.3628 61.7255 36.3628 61.5686C36.3628 61.359 36.4319 61.2016 36.5605 61.1064H35.7053V61.811C35.7053 62.1655 35.7738 62.3031 35.8276 62.3411C35.9811 62.4187 36.2796 62.4674 36.7491 62.4674L36.9603 62.4663ZM37.2939 61.1166L37.5856 61.3777C37.6921 61.4672 37.8144 61.5997 37.9521 61.7691C38.0121 61.8931 38.0325 61.9894 38.0325 62.0896C38.0325 62.2391 37.9906 62.3553 37.9158 62.4402C38.011 62.434 38.0942 62.4272 38.165 62.4193C38.3395 62.404 38.3904 62.3615 38.3995 62.3496L38.4386 62.2947C38.4488 62.2697 38.459 62.2318 38.468 62.178C38.4873 62.0647 38.4963 61.9101 38.4963 61.7141C38.4963 61.3063 38.7484 61.0973 39.1613 61.0973C39.3487 61.0973 39.5152 61.1495 39.6319 61.278C39.7441 61.4377 39.778 61.6722 39.778 61.9565C39.778 62.2001 39.7531 62.4442 39.7027 62.6877C39.6297 63.053 39.4292 63.3181 39.1012 63.4682C38.8146 63.6069 38.1231 63.6641 37.0765 63.6641C36.0802 63.6641 35.3892 63.586 35.046 63.4047C34.6439 63.1221 34.4717 62.6401 34.4717 62.0047V61.1058H32.9918C32.9063 61.5793 32.7664 61.9656 32.5642 62.2561C32.3563 62.5914 32.0607 62.8678 31.6812 63.087C31.3414 63.2824 30.9183 63.4319 30.4154 63.5395C30.0342 63.6222 29.636 63.6641 29.2214 63.6641C28.7848 63.6641 28.5078 63.4591 28.5078 63.0355C28.5078 62.6526 28.7344 62.4379 29.1189 62.4187C29.7986 62.4028 30.3287 62.323 30.7121 62.1848C31.0757 62.037 31.334 61.8591 31.4988 61.6581C31.6319 61.5017 31.7276 61.3177 31.7837 61.1058H30.8333C30.1967 61.1058 29.8286 60.8028 29.8286 60.1985V57.3616C29.8286 56.7572 30.1967 56.4537 30.8333 56.4537H32.119C31.9276 56.371 31.8171 56.2005 31.8171 55.9434L30.4946 55.9417C30.1644 55.9417 29.9753 55.7525 29.9753 55.4217C29.9753 55.0881 30.1605 54.8905 30.4946 54.8905H31.8171C31.8171 54.6645 31.8766 54.5218 31.9836 54.4266H30.1673C29.9311 54.4266 29.8382 54.5201 29.8382 54.7557V55.4585C29.8382 55.8578 29.6196 56.0878 29.2214 56.0878C28.8233 56.0878 28.6047 55.8578 28.6047 55.4585V54.4289C28.6047 53.7119 28.9824 53.3273 29.6944 53.3273H33.5264V53.0951C33.5264 52.7009 33.7485 52.4789 34.1432 52.4789C34.5561 52.4789 34.8081 52.6879 34.8081 53.0951V53.3273H38.5434C38.9438 53.3273 39.2643 53.4661 39.4824 53.76C39.6568 53.9832 39.7299 54.3066 39.7299 54.7081C39.7299 54.9511 39.6959 55.2303 39.6291 55.5407C39.547 55.8686 39.3108 56.0402 38.9676 56.0402C38.5728 56.0402 38.3508 55.8176 38.3508 55.4229C38.4188 55.0366 38.4476 54.8293 38.4476 54.7562C38.4476 54.4878 38.3576 54.4272 38.216 54.4272H36.2178C36.3186 54.5246 36.3719 54.6685 36.3719 54.8531L37.6944 54.891C38.0285 54.891 38.2137 55.0893 38.2137 55.4223C38.2137 55.7531 38.024 55.9422 37.6944 55.9422L36.3719 55.9439C36.3719 56.1943 36.2733 56.3704 36.0932 56.4542H37.3189C37.9492 56.4542 38.3111 56.7595 38.3111 57.3621V60.1991C38.3111 60.8011 37.9492 61.1064 37.3189 61.1064H37.2752L37.2939 61.1166Z" fill="#727171"/>
<path fill-rule="evenodd" clip-rule="evenodd" d="M43.2468 58.2587V58.5334C43.0882 59.2408 42.8832 59.8751 42.6272 60.4664C42.7161 60.3112 42.8758 60.2223 43.1046 60.2223C43.3397 60.2568 43.4496 60.2704 43.4756 60.2704C43.5747 60.2704 43.6087 60.2438 43.6087 60.1249V57.2273H41.836C41.4786 57.2273 41.2753 57.0246 41.2753 56.6666C41.2753 56.2917 41.4644 56.0578 41.836 56.0578H41.981V54.1412C41.981 53.7832 42.1843 53.5805 42.5417 53.5805C42.8996 53.5805 43.1029 53.7832 43.1029 54.1412V56.0578H43.6087V53.1121C43.6087 52.7502 43.82 52.5514 44.1819 52.5514C44.5568 52.5514 44.7907 52.7405 44.7907 53.1121V53.82H46.0968C46.4542 53.82 46.6581 54.0228 46.6581 54.3807C46.6581 54.7381 46.4547 54.9414 46.0968 54.9414H44.7907V56.0578H46.4196C46.7917 56.0578 46.9809 56.2922 46.9809 56.6666C46.9809 57.0246 46.7776 57.2273 46.4196 57.2273H44.7907V60.1249C44.7907 60.9858 44.3359 61.44 43.4756 61.44C43.3476 61.44 43.193 61.4224 43.0231 61.3879C42.7342 61.3041 42.5439 61.1194 42.5439 60.8311C42.5439 60.7354 42.5558 60.6482 42.5808 60.5723C42.5173 60.7145 42.4511 60.8549 42.3808 60.992C42.2772 61.1891 42.1056 61.2961 41.8836 61.2961C41.508 61.2961 41.2266 61.1483 41.2266 60.7836C41.2266 60.6714 41.2453 60.5604 41.2815 60.4511C41.6763 59.7137 41.9674 58.9463 42.1645 58.1279C42.2307 57.8736 42.4216 57.7444 42.685 57.7444C43.0265 57.7456 43.2468 57.9172 43.2468 58.2587ZM46.5606 58.2417C46.4899 59.4288 46.3415 60.3101 46.1104 60.9053C45.8391 61.6711 45.4104 62.2822 44.8202 62.7387C44.1649 63.2614 43.3448 63.5718 42.3661 63.6772L42.169 63.6783C41.7997 63.6675 41.6162 63.411 41.5981 63.0287C41.627 62.6934 41.7992 62.477 42.101 62.4153C42.903 62.3292 43.5662 62.0879 44.0839 61.6994C44.5478 61.3499 44.8916 60.8844 45.1141 60.301C45.2976 59.8428 45.4245 59.1445 45.4879 58.1992C45.5123 57.9172 45.7281 57.7931 46.005 57.7931C46.3029 57.8124 46.5261 57.9511 46.5606 58.2417ZM48.8477 62.0409C48.8477 62.2091 48.7638 62.3688 48.6324 62.5184C48.2428 62.9573 47.6968 63.356 47.0075 63.7123C46.9367 63.744 46.8557 63.7746 46.7906 63.7746C46.3686 63.7746 46.1336 63.539 46.1336 63.1176C46.1336 62.9397 46.2571 62.7789 46.423 62.6384C47.0115 62.3315 47.4804 61.9826 47.8588 61.5731C48.0247 61.4791 48.1448 61.4315 48.2382 61.4315C48.6285 61.4315 48.8477 61.6507 48.8477 62.0409ZM50.8826 61.4508C51.1551 61.6535 51.389 61.8393 51.598 62.016C51.8534 62.2142 52.1564 62.5014 52.5076 62.8769L52.5359 62.9216C52.5738 63.0168 52.5948 63.1148 52.5948 63.2139C52.5948 63.5684 52.3433 63.727 51.9854 63.727C51.8336 63.727 51.6948 63.6891 51.5781 63.6035C51.2519 63.2637 50.9919 63.0117 50.7796 62.8304C50.5994 62.6741 50.3944 62.5121 50.1667 62.3473C50.0376 62.1927 49.9764 62.0545 49.9764 61.909C49.9764 61.547 50.1758 61.3363 50.5371 61.3363C50.6465 61.3358 50.7637 61.3828 50.8826 61.4508Z" fill="#727171"/>
<path fill-rule="evenodd" clip-rule="evenodd" d="M50.9109 56.5245V55.9722C50.9109 55.8273 50.8622 55.7791 50.7172 55.7791H48.3356C48.2037 55.7791 48.1544 55.8222 48.1544 55.9722V56.5245H50.9109ZM50.9109 58.4394V57.6464H48.155V58.4394H50.9109ZM50.9109 60.2217V59.5732H48.155V60.2217C48.155 60.3588 48.1991 60.4024 48.3362 60.4024H50.7178C50.8679 60.4024 50.9109 60.3531 50.9109 60.2217ZM52.5953 53.4955C52.5953 53.8534 52.392 54.0562 52.0341 54.0562H50.1231L49.977 54.6577H51.1001C51.7288 54.6577 52.0799 54.9771 52.0799 55.5899V60.5927C52.0799 61.2123 51.731 61.5368 51.1001 61.5368H47.9641C47.3332 61.5368 46.9843 61.2123 46.9843 60.5927V55.5894C46.9843 54.9771 47.3354 54.6571 47.9641 54.6571H48.7502L48.8964 54.0556H46.9831C46.6252 54.0556 46.4219 53.8529 46.4219 53.4949C46.4219 53.1155 46.6076 52.8736 46.9831 52.8736H52.0335C52.409 52.8742 52.5953 53.116 52.5953 53.4955Z" fill="#727171"/>
<path d="M81.5786 36.8912C88.4652 36.8912 94.0479 31.364 94.0479 24.546C94.0479 17.7279 88.4652 12.2008 81.5786 12.2008C74.692 12.2008 69.1094 17.7279 69.1094 24.546C69.1094 31.364 74.692 36.8912 81.5786 36.8912Z" fill="#E50020"/>
<path d="M67.8134 24.546C67.8134 17.0178 73.9777 10.9151 81.5813 10.9151C84.9121 10.9151 87.9654 12.0858 90.347 14.0341C87.2801 10.3431 82.6313 7.98868 77.4264 7.98868C68.19 7.98868 60.7031 15.4014 60.7031 24.546C60.7031 33.6901 68.1906 41.1033 77.4264 41.1033C82.6302 41.1033 87.2796 38.7495 90.347 35.0578C87.966 37.0056 84.9121 38.1769 81.5813 38.1769C73.9772 38.1769 67.8134 32.0736 67.8134 24.546Z" fill="#E50020"/>
<path d="M59.3767 24.546C59.3767 14.6435 67.4849 6.61634 77.487 6.61634C81.502 6.61634 85.2112 7.91107 88.2141 10.1001C84.3163 5.97804 78.7715 3.40048 72.619 3.40048C60.8238 3.40048 51.2617 12.868 51.2617 24.546C51.2617 36.224 60.8238 45.6909 72.619 45.6909C78.7715 45.6909 84.3163 43.1139 88.2141 38.9913C85.2106 41.1809 81.5014 42.475 77.487 42.475C67.4854 42.4756 59.3767 34.4484 59.3767 24.546Z" fill="#E50020"/>
</g>
<defs>
<clipPath id="clip0_627_6736">
<rect width="97.4159" height="64" fill="white" transform="translate(0.0507812)"/>
</clipPath>
</defs>
</svg>
