<?xml version="1.0" encoding="UTF-8" standalone="no"?>
<svg
   version="1.1"
   width="287.71683"
   height="290.99796"
   viewBox="0 0 287.71683 290.99796"
   id="svg137"
   xml:space="preserve"
   xmlns:xlink="http://www.w3.org/1999/xlink"
   xmlns="http://www.w3.org/2000/svg"
   xmlns:svg="http://www.w3.org/2000/svg"><defs
     id="defs141"><linearGradient
       id="linearGradient13473"><stop
         style="stop-color:#fecc00;stop-opacity:1;"
         offset="0"
         id="stop13465" /><stop
         style="stop-color:#fecc00;stop-opacity:1"
         offset="0.08105806"
         id="stop17698" /><stop
         style="stop-color:#fec600;stop-opacity:1"
         offset="0.21156549"
         id="stop15208" /><stop
         style="stop-color:#feb600;stop-opacity:1"
         offset="0.45266423"
         id="stop16521" /><stop
         style="stop-color:#fea800;stop-opacity:1"
         offset="0.69345838"
         id="stop14240" /><stop
         style="stop-color:#ffa700;stop-opacity:1"
         offset="0.73881656"
         id="stop14167" /><stop
         style="stop-color:#ffa500;stop-opacity:1"
         offset="0.77879471"
         id="stop13475" /><stop
         style="stop-color:#ffa500;stop-opacity:1;"
         offset="1"
         id="stop13471" /></linearGradient><linearGradient
       xlink:href="#linearGradient13473"
       id="linearGradient13463"
       x1="287.71683"
       y1="83.409248"
       x2="0"
       y2="290.99796"
       gradientUnits="userSpaceOnUse" /></defs><path
     style="mix-blend-mode:normal;fill:url(#linearGradient13463)"
     d="m 116.31363,0.02551464 c 3.75443,0.61012873 29.97993,5.48823786 29.97993,5.48823786 l 25.78516,4.7910155 c 5.12004,0.903151 4.75284,0.31896 5.60352,4.923828 0.5775,2.515689 1.13765,4.989891 1.77539,7.523438 0.51605,2.271101 -0.0903,1.472552 3.55468,2.476562 2.1353,0.584545 5.42596,1.47712 8.93946,2.425782 l 8.7168,2.351562 c 2.49769,0.669065 2.11298,0.357854 3.01562,3.515625 0,0 0.53903,2.356625 0.96485,4.158203 0.49245,2.025318 0.99996,4.077923 1.54492,6.089844 0.22935,0.551385 0.2379,0.390913 1.11914,0.636719 l 9.73242,2.59375 10.33984,2.703125 c 1.91876,0.383158 1.68539,0.864284 2.4629,5.304687 1.04416,5.809548 1.92978,13.821338 2.11718,21.460938 0.38453,15.675144 -1.05471,33.900559 -4.0332,49.330079 -0.68349,3.54051 -1.07227,5.60938 -1.07227,5.60938 15.16138,-2.3943 30.19165,1.60799 41.98633,11.39843 7.34701,6.2026 12.54647,13.65869 15.69141,22.3125 2.17285,6.30938 3.22263,12.32308 3.17773,18.04883 -0.0773,21.79415 -12.89249,39.08178 -29.55078,47.11524 -14.57593,7.20266 -32.88656,7.08933 -47.83008,-1.11914 -6.30301,-3.46225 -11.8737,-7.94873 -17.25837,-15.10796 l -1.44927,2.30679 c -18.95599,28.86627 -43.40803,53.57377 -73.28949,73.54843 -2.09129,1.20722 -1.93147,1.64165 -4.57074,0.0761 -2.62695,-1.73906 -5.47026,-3.70182 -7.74854,-5.38004 C 61.013404,252.57207 27.752251,206.88252 11.543892,156.02848 7.0461619,141.82435 3.3736658,125.78911 1.7150068,110.48754 0.38086833,99.156556 -0.20019465,87.325274 0.06114396,76.671956 c 0.1874,-7.639603 1.04033114,-15.872041 2.08450114,-21.681588 0.77751,-4.440403 0.54413,-4.921529 2.46289,-5.304687 l 10.3417999,-2.703125 9.73046,-2.557082 c 0.88124,-0.245806 0.89175,-0.08533 1.1211,-0.636719 0.54496,-2.011921 1.05052,-4.064526 1.54297,-6.089844 0.42582,-1.801578 1.047591,-4.282329 1.047591,-4.282329 0.90264,-3.157771 0.437139,-2.722434 2.934829,-3.391499 l 8.71484,-2.349609 c 3.5135,-0.948662 6.80416,-1.84319 8.93946,-2.427735 3.64497,-1.00401 3.03863,-0.205461 3.55468,-2.476562 0.63774,-2.533547 1.19788,-5.007749 1.77539,-7.523438 0.85068,-4.604868 0.578759,-4.080226 5.60352,-4.923828 L 115.27186,0.02551464 c 0.4908,-0.032164 0.50073,-0.0358258 1.04177,0 z"
     id="path18102" /><path
     id="path18093"
     d="m 201.92773,161.75195 v 0.0762 10.83399 h 8.00977 v 31.62109 h 14.13477 v -31.62109 h 8.82812 l 12.58203,32.4668 h 10.9961 l 15.69336,-43.3418 -14.85547,-0.0352 -7.08985,22.30664 -7.25586,-22.30664 z" /><path
     id="path18084"
     d="m 106.61133,35.384766 -0.006,0.002 c -5.45583,0.579355 -10.000241,1.499828 -15.16797,2.705078 -0.592534,0.145579 -0.950677,0.368155 -1.164062,0.695312 -0.21379,0.327789 -0.2869,0.772359 -0.28711,1.369141 l 0.580078,108.962893 c 0,13.64636 0.0017,24.86905 0.628906,37.63672 v 0.002 0.004 c 0,0.43787 -0.242503,0.76015 -0.542968,0.84375 -0.149182,0.0415 -0.315577,0.0203 -0.457032,-0.0762 -0.142264,-0.0971 -0.260747,-0.2648 -0.33789,-0.51172 v -0.002 C 78.629757,152.07611 73.450033,108.37873 74.373047,45.234375 c 0,-0.293168 -0.01782,-0.52425 -0.06641,-0.693359 -0.04807,-0.167303 -0.123579,-0.271713 -0.236329,-0.328125 -0.115409,-0.05775 -0.280157,-0.07059 -0.517578,-0.0293 -0.237245,0.04127 -0.541809,0.136057 -0.925781,0.283203 h -0.002 c -5.122862,2.090192 -11.207531,5.470787 -14.542969,7.550781 h -0.002 l -0.002,0.002 c -0.434174,0.30959 -0.727111,0.610984 -0.914063,1.021485 -0.187011,0.410641 -0.269531,0.933273 -0.269531,1.679687 v 0.002 0.002 c -0.917729,43.396149 2.756967,81.033753 9.097657,109.236333 l 0.0078,0.043 -3.330078,2.15234 h -0.002 c -0.631951,0.44806 -1.190551,0.68177 -1.714844,0.55664 -0.522815,-0.12479 -0.983379,-0.60352 -1.423828,-1.52344 l -0.002,-0.006 C 48.882091,141.50925 42.203125,105.36409 42.203125,66.546875 c 0,-0.732088 -0.225142,-1.229857 -0.539063,-1.443359 -0.155575,-0.105783 -0.334157,-0.144184 -0.527343,-0.109375 -0.185143,0.03336 -0.387402,0.146145 -0.589844,0.330078 h -0.01172 l -0.01563,0.01563 h -0.002 L 40.5,65.357422 c -4.575957,4.24397 -9.39404,9.113103 -13.304688,13.933594 h -0.0059 l -0.01758,0.02344 c -1.241392,1.494456 -1.5268,2.391656 -1.527344,3.917969 v 0.002 0.002 0.002 c 0.918316,31.532395 10.929253,76.422285 26.396485,103.740235 v 0.043 h 0.03125 c 0.887718,1.63568 1.914739,2.61344 3.101562,2.98438 1.196098,0.37383 2.546947,0.0828 4.056641,-0.9707 l 0.0059,-0.002 11.59375,-7.34765 0.02344,0.082 c 7.592262,25.49061 18.833666,48.91763 35.474604,68.02148 0.30056,0.3397 0.58489,0.41392 0.78907,0.34961 0.20428,-0.0643 0.34765,-0.27104 0.34765,-0.54297 l 0.006,-213.449212 c 0,-0.284186 -0.0687,-0.468613 -0.20312,-0.585937 -0.13513,-0.117965 -0.34872,-0.174995 -0.65039,-0.175781 z" /><path
     id="path18075"
     d="m 125.44336,35.410156 c -0.30435,3.5e-4 -0.51703,0.05742 -0.65234,0.175782 -0.13449,0.11764 -0.20118,0.303814 -0.20118,0.58789 V 249.51367 c 0,0.20888 0.12704,0.39007 0.32422,0.45508 0.1809,0.0596 0.43925,-0.0208 0.71094,-0.24609 l 0.0723,0.0762 0.043,-0.0391 c 27.50485,-25.47245 45.69282,-47.73227 57.2168,-66.64063 l 0.008,-0.0137 v -0.0176 c -0.0345,-5.69367 1.01143,-11.67327 3.17188,-17.94727 v -0.002 c 2.68191,-7.37893 6.87256,-13.87764 12.60351,-19.47851 l 0.0137,-0.0137 0.004,-0.0176 c 0.80822,-4.11126 1.23047,-7.93841 1.23047,-11.39649 0,-6.66767 -1.29204,-12.49524 -4.24414,-17.10742 -2.95212,-4.61217 -7.56462,-8.01408 -14.22461,-9.82617 l -0.10156,-0.0273 0.0723,-0.0781 c 6.66173,-7.248449 10.61524,-17.243706 10.61524,-27.576172 0,-12.265129 -6.51095,-22.634944 -18.10156,-30.283204 C 162.41444,41.686476 145.7457,36.764452 125.44727,35.410156 l -0.002,0.06055 c -6.6e-4,-4.4e-5 -10e-4,4.4e-5 -0.002,0 z m 16.2793,19.81836 0.0684,0.0059 c 9.28446,0.606737 17.42339,3.417087 23.24218,7.601563 5.81879,4.184462 9.32227,9.746936 9.32227,15.847656 0,12.767397 -9.13163,26.483715 -32.53516,40.144525 l -0.0977,0.0586 z m 30.11132,68.882814 h 0.002 c 2.89725,5.3e-4 5.3525,1.2223 7.07422,3.51172 1.72218,2.29005 2.71679,5.64296 2.71679,9.91406 0,12.18254 -8.81765,35.86511 -39.78906,70.48633 l -0.11523,0.1289 V 139.3418 l 0.0273,-0.0195 c 8.95282,-6.38698 14.86959,-10.18637 19.35156,-12.39258 4.4811,-2.20574 7.53211,-2.81815 10.73242,-2.81836 z" /></svg>
