<?xml version="1.0" encoding="utf-8"?>
<!-- Generator: Adobe Illustrator 27.3.1, SVG Export Plug-In . SVG Version: 6.00 Build 0)  -->
<svg version="1.1" id="Layer_1" xmlns="http://www.w3.org/2000/svg" xmlns:xlink="http://www.w3.org/1999/xlink" x="0px" y="0px"
	 viewBox="0 0 125 32" style="enable-background:new 0 0 125 32;" xml:space="preserve">
<style type="text/css">
	.st0{fill:#00ADEE;}
	.st1{fill:#50B748;}
	.st2{fill:#EC1D24;}
</style>
<g id="logo_mytv_super" transform="translate(39.000000, 260.000000)">
	<g id="logo" transform="translate(4.353234, 3.137255)">
		<g id="text" transform="translate(35.878783, 3.773339)">
			<path id="Combined-Shape" d="M-30.4-242c-0.4,0-0.7-0.2-1-0.5c-0.4-0.5-0.4-1.4,0.2-1.8l10.1-8.4v-5.5l-8.5,7
				c-0.4,0.3-0.9,0.4-1.4,0.2c-0.4-0.2-0.7-0.7-0.7-1.2v-8.8c0-0.7,0.6-1.3,1.3-1.3c0.7,0,1.3,0.6,1.3,1.3v6l8.5-7
				c0.4-0.3,0.9-0.4,1.4-0.2c0.4,0.2,0.7,0.7,0.7,1.2v8.8c0,0.4-0.2,0.7-0.5,1l-10.6,8.7C-29.8-242.1-30.1-242-30.4-242 M-5.9-262.1
				h-10.5c-0.7,0-1.3,0.6-1.3,1.3s0.6,1.3,1.3,1.3h4.2v7.5c0,0.7,0.6,1.3,1.3,1.3s1.3-0.6,1.3-1.3v-7.5h3.8c0.7,0,1.3-0.6,1.3-1.3
				S-5.2-262.1-5.9-262.1 M-2.5-250.8c-0.2,0-0.4,0-0.5-0.1c-0.4-0.2-0.7-0.7-0.7-1.2v-8.8c0-0.7,0.6-1.3,1.3-1.3
				c0.7,0,1.3,0.6,1.3,1.3v6l8.5-7c0.5-0.4,1.3-0.4,1.8,0.2c0.4,0.5,0.4,1.4-0.2,1.8l-10.6,8.7C-1.9-250.9-2.2-250.8-2.5-250.8
				 M-6.4-241.9h-5.3c-0.4,0-0.6-0.3-0.6-0.6c0-0.4,0.3-0.6,0.6-0.6H-7v-1.8h-4.7c-0.4,0-0.6-0.3-0.6-0.6v-3.1
				c0-0.4,0.3-0.6,0.6-0.6h5.3c0.4,0,0.6,0.3,0.6,0.6c0,0.4-0.3,0.6-0.6,0.6H-11v1.8h4.7c0.4,0,0.6,0.3,0.6,0.6v3.1
				C-5.7-242.2-6-241.9-6.4-241.9 M3.6-246.3h4v-1.8h-4V-246.3z M3-241.9c-0.4,0-0.6-0.3-0.6-0.6v-6.1c0-0.4,0.3-0.6,0.6-0.6h5.3
				c0.4,0,0.6,0.3,0.6,0.6v3.1c0,0.4-0.3,0.6-0.6,0.6H3.6v2.4C3.6-242.2,3.3-241.9,3-241.9L3-241.9z M22.6-249.3
				c0.4,0,0.6,0.3,0.6,0.6l0,0v3.1c0,0.4-0.3,0.6-0.6,0.6l0,0h-1.4l2,2c0.3,0.3,0.3,0.7,0,0.9c-0.1,0.1-0.3,0.2-0.5,0.2
				c-0.2,0-0.3-0.1-0.5-0.2l0,0l-2.9-2.9c0,0,0,0,0,0l0,0H18v2.4c0,0.4-0.3,0.6-0.6,0.6c-0.4,0-0.6-0.3-0.6-0.6l0,0v-6.1
				c0-0.4,0.3-0.6,0.6-0.6l0,0H22.6z M22-248h-4v1.8h4V-248z M0.9-241.9h-5.3c-0.4,0-0.6-0.3-0.6-0.6v-6.1c0-0.4,0.3-0.6,0.6-0.6
				c0.4,0,0.6,0.3,0.6,0.6v5.5h4v-5.5c0-0.4,0.3-0.6,0.6-0.6c0.4,0,0.6,0.3,0.6,0.6v6.1C1.6-242.2,1.3-241.9,0.9-241.9 M10.1-241.9
				c-0.4,0-0.6-0.3-0.6-0.6v-6.1c0-0.4,0.3-0.6,0.6-0.6s0.6,0.3,0.6,0.6v6.1C10.8-242.2,10.5-241.9,10.1-241.9 M-44.9-250.8
				c-0.2,0-0.4,0-0.5-0.1c-0.4-0.2-0.7-0.7-0.7-1.2v-6l-8.5,7c-0.5,0.4-1.3,0.4-1.8-0.2c-0.4-0.5-0.4-1.4,0.2-1.8l10.6-8.7
				c0.4-0.3,0.9-0.4,1.4-0.2c0.4,0.2,0.7,0.7,0.7,1.2v6l8.5-7c0.4-0.3,0.9-0.4,1.4-0.2s0.7,0.7,0.7,1.2v8.7c0,0.7-0.6,1.3-1.3,1.3
				c-0.7,0-1.3-0.6-1.3-1.3v-6l-8.5,7C-44.4-250.9-44.6-250.8-44.9-250.8"/>
			<path id="Fill-17" class="st0" d="M15.4-248h-5.3c-0.4,0-0.6-0.3-0.6-0.6s0.3-0.6,0.6-0.6h5.3c0.4,0,0.6,0.3,0.6,0.6
				S15.8-248,15.4-248"/>
			<path id="Fill-18" class="st1" d="M15.4-245h-5.3c-0.4,0-0.6-0.3-0.6-0.6c0-0.4,0.3-0.6,0.6-0.6h5.3c0.4,0,0.6,0.3,0.6,0.6
				C16.1-245.3,15.8-245,15.4-245"/>
			<path id="Fill-19" class="st2" d="M15.4-241.9h-5.3c-0.4,0-0.6-0.3-0.6-0.6c0-0.4,0.3-0.6,0.6-0.6h5.3c0.4,0,0.6,0.3,0.6,0.6
				C16.1-242.2,15.8-241.9,15.4-241.9"/>
		</g>
	</g>
</g>
</svg>
